<svg width="378" height="190" viewBox="0 0 378 190" fill="none" xmlns="http://www.w3.org/2000/svg">
<rect width="378" height="190" fill="#E5E5E5"/>
<rect width="378" height="190" fill="#F0F4F8"/>
<path d="M78.6 95H23.4C13.238 95 5 102.522 5 111.8V162.2C5 171.478 13.238 179 23.4 179H78.6C88.762 179 97 171.478 97 162.2V111.8C97 102.522 88.762 95 78.6 95Z" fill="#2CB1BC"/>
<path d="M66.464 147.44H68.192V158H39.072V156.336L42.592 155.952C43.2747 155.867 43.68 155.696 43.808 155.44C43.936 155.184 44 154.309 44 152.816V119.664C44 118.171 43.936 117.296 43.808 117.04C43.68 116.784 43.2747 116.613 42.592 116.528L39.072 116.208V114.48H54.496V116.208L50.976 116.528C50.2933 116.613 49.888 116.784 49.76 117.04C49.632 117.296 49.568 118.171 49.568 119.664V155.952H61.152C62.176 155.952 62.9013 155.931 63.328 155.888C63.7547 155.803 64.032 155.653 64.16 155.44C64.3307 155.184 64.48 154.8 64.608 154.288L66.464 147.44Z" fill="#F0F4F8"/>
<path d="M150.464 147.44H152.192V158H123.072V156.336L126.592 155.952C127.275 155.867 127.68 155.696 127.808 155.44C127.936 155.184 128 154.309 128 152.816V119.664C128 118.171 127.936 117.296 127.808 117.04C127.68 116.784 127.275 116.613 126.592 116.528L123.072 116.208V114.48H138.496V116.208L134.976 116.528C134.293 116.613 133.888 116.784 133.76 117.04C133.632 117.296 133.568 118.171 133.568 119.664V155.952H145.152C146.176 155.952 146.901 155.931 147.328 155.888C147.755 155.803 148.032 155.653 148.16 155.44C148.331 155.184 148.48 154.8 148.608 154.288L150.464 147.44ZM164.97 156.336V158H152.809V156.336L156.266 155.952C156.735 155.909 157.076 155.845 157.29 155.76C157.503 155.632 157.695 155.376 157.866 154.992C158.079 154.565 158.335 153.84 158.634 152.816L170.986 114.48H175.018L187.498 152.816C187.796 153.84 188.031 154.565 188.201 154.992C188.415 155.376 188.628 155.632 188.842 155.76C189.055 155.845 189.375 155.909 189.802 155.952L193.322 156.336V158H177.77V156.336L181.29 155.952C181.972 155.867 182.335 155.696 182.378 155.44C182.463 155.141 182.271 154.267 181.802 152.816L179.178 144.624H163.562L160.938 152.816C160.468 154.267 160.255 155.141 160.298 155.44C160.383 155.696 160.767 155.867 161.45 155.952L164.97 156.336ZM164.202 142.576H178.538L171.37 120.304L164.202 142.576ZM196.197 116.208V114.48H213.605C217.786 114.48 220.922 115.461 223.013 117.424C225.104 119.344 226.149 121.819 226.149 124.848V126.576C226.149 128.795 225.488 130.693 224.165 132.272C222.842 133.851 220.986 134.96 218.597 135.6C221.584 136.112 223.909 137.243 225.573 138.992C227.237 140.741 228.069 142.939 228.069 145.584V147.312C228.069 150.427 226.981 152.987 224.805 154.992C222.672 156.997 219.472 158 215.205 158H196.197V156.336L199.717 155.952C200.4 155.867 200.805 155.696 200.933 155.44C201.061 155.184 201.125 154.309 201.125 152.816V119.664C201.125 118.171 201.061 117.296 200.933 117.04C200.805 116.784 200.4 116.613 199.717 116.528L196.197 116.208ZM213.605 116.528H206.693V134.832H213.605C218.042 134.832 220.261 132.251 220.261 127.088V124.464C220.261 119.173 218.042 116.528 213.605 116.528ZM215.205 136.88H206.693V155.952H215.205C219.856 155.952 222.181 153.2 222.181 147.696V145.072C222.181 142.427 221.584 140.4 220.389 138.992C219.237 137.584 217.509 136.88 215.205 136.88ZM257.623 156.336V158H242.199V156.336L245.719 155.952C246.401 155.867 246.807 155.696 246.935 155.44C247.063 155.184 247.127 154.309 247.127 152.816V139.44L236.823 119.28C236.396 118.427 236.055 117.829 235.799 117.488C235.585 117.104 235.351 116.869 235.095 116.784C234.881 116.656 234.54 116.571 234.071 116.528L230.806 116.208V114.48H246.295V116.208L243.031 116.528C242.391 116.613 242.049 116.784 242.007 117.04C242.007 117.296 242.305 118.043 242.903 119.28L251.607 136.752L260.503 119.28C261.143 118.043 261.441 117.296 261.399 117.04C261.356 116.784 261.015 116.613 260.375 116.528L257.111 116.208V114.48H268.951V116.208L265.623 116.528C265.196 116.571 264.855 116.656 264.599 116.784C264.385 116.869 264.151 117.104 263.895 117.488C263.681 117.829 263.361 118.427 262.935 119.28L252.695 139.312V152.816C252.695 154.309 252.759 155.184 252.887 155.44C253.015 155.696 253.42 155.867 254.103 155.952L257.623 156.336Z" fill="#2CB1BC"/>
</svg>
