<svg width="124" height="60" viewBox="0 0 124 60" fill="none" xmlns="http://www.w3.org/2000/svg">
<rect width="124" height="60" fill="white"/>
<path d="M40.0902 13.1507H23.3083C20.2188 13.1507 17.7143 15.653 17.7143 18.7397V35.5068C17.7143 38.5936 20.2188 41.0959 23.3083 41.0959H40.0902C43.1797 41.0959 45.6842 38.5936 45.6842 35.5068V18.7397C45.6842 15.653 43.1797 13.1507 40.0902 13.1507Z" fill="#2CB1BC"/>
<path d="M63.3472 31.4422H63.7792V34.0822H56.4992V33.6662L57.3792 33.5702C57.5499 33.5489 57.6512 33.5062 57.6832 33.4422C57.7152 33.3782 57.7312 33.1595 57.7312 32.7862V24.4982C57.7312 24.1249 57.7152 23.9062 57.6832 23.8422C57.6512 23.7782 57.5499 23.7355 57.3792 23.7142L56.4992 23.6342V23.2022H60.3552V23.6342L59.4752 23.7142C59.3045 23.7355 59.2032 23.7782 59.1712 23.8422C59.1392 23.9062 59.1232 24.1249 59.1232 24.4982V33.5702H62.0192C62.2752 33.5702 62.4565 33.5649 62.5632 33.5542C62.6699 33.5329 62.7392 33.4955 62.7712 33.4422C62.8139 33.3782 62.8512 33.2822 62.8832 33.1542L63.3472 31.4422ZM66.9736 33.6662V34.0822H63.9336V33.6662L64.7976 33.5702C64.9149 33.5595 65.0002 33.5435 65.0536 33.5222C65.1069 33.4902 65.1549 33.4262 65.1976 33.3302C65.2509 33.2235 65.3149 33.0422 65.3896 32.7862L68.4776 23.2022H69.4856L72.6056 32.7862C72.6802 33.0422 72.7389 33.2235 72.7816 33.3302C72.8349 33.4262 72.8882 33.4902 72.9416 33.5222C72.9949 33.5435 73.0749 33.5595 73.1816 33.5702L74.0616 33.6662V34.0822H70.1736V33.6662L71.0536 33.5702C71.2242 33.5489 71.3149 33.5062 71.3256 33.4422C71.3469 33.3675 71.2989 33.1489 71.1816 32.7862L70.5256 30.7382H66.6216L65.9656 32.7862C65.8482 33.1489 65.7949 33.3675 65.8056 33.4422C65.8269 33.5062 65.9229 33.5489 66.0936 33.5702L66.9736 33.6662ZM66.7816 30.2262H70.3656L68.5736 24.6582L66.7816 30.2262ZM74.7805 23.6342V23.2022H79.1325C80.1778 23.2022 80.9618 23.4475 81.4845 23.9382C82.0071 24.4182 82.2685 25.0369 82.2685 25.7942V26.2262C82.2685 26.7809 82.1031 27.2555 81.7725 27.6502C81.4418 28.0449 80.9778 28.3222 80.3805 28.4822C81.1271 28.6102 81.7085 28.8929 82.1245 29.3302C82.5405 29.7675 82.7485 30.3169 82.7485 30.9782V31.4102C82.7485 32.1889 82.4765 32.8289 81.9325 33.3302C81.3991 33.8315 80.5991 34.0822 79.5325 34.0822H74.7805V33.6662L75.6605 33.5702C75.8311 33.5489 75.9325 33.5062 75.9645 33.4422C75.9965 33.3782 76.0125 33.1595 76.0125 32.7862V24.4982C76.0125 24.1249 75.9965 23.9062 75.9645 23.8422C75.9325 23.7782 75.8311 23.7355 75.6605 23.7142L74.7805 23.6342ZM79.1325 23.7142H77.4045V28.2902H79.1325C80.2418 28.2902 80.7965 27.6449 80.7965 26.3542V25.6982C80.7965 24.3755 80.2418 23.7142 79.1325 23.7142ZM79.5325 28.8022H77.4045V33.5702H79.5325C80.6951 33.5702 81.2765 32.8822 81.2765 31.5062V30.8502C81.2765 30.1889 81.1271 29.6822 80.8285 29.3302C80.5405 28.9782 80.1085 28.8022 79.5325 28.8022ZM90.1368 33.6662V34.0822H86.2808V33.6662L87.1608 33.5702C87.3315 33.5489 87.4328 33.5062 87.4648 33.4422C87.4968 33.3782 87.5128 33.1595 87.5128 32.7862V29.4422L84.9368 24.4022C84.8302 24.1889 84.7448 24.0395 84.6808 23.9542C84.6275 23.8582 84.5688 23.7995 84.5048 23.7782C84.4515 23.7462 84.3662 23.7249 84.2488 23.7142L83.4328 23.6342V23.2022H87.3048V23.6342L86.4888 23.7142C86.3288 23.7355 86.2435 23.7782 86.2328 23.8422C86.2328 23.9062 86.3075 24.0929 86.4568 24.4022L88.6328 28.7702L90.8568 24.4022C91.0168 24.0929 91.0915 23.9062 91.0808 23.8422C91.0702 23.7782 90.9848 23.7355 90.8248 23.7142L90.0088 23.6342V23.2022H92.9688V23.6342L92.1368 23.7142C92.0302 23.7249 91.9448 23.7462 91.8808 23.7782C91.8275 23.7995 91.7688 23.8582 91.7048 23.9542C91.6515 24.0395 91.5715 24.1889 91.4648 24.4022L88.9048 29.4102V32.7862C88.9048 33.1595 88.9208 33.3782 88.9528 33.4422C88.9848 33.5062 89.0862 33.5489 89.2568 33.5702L90.1368 33.6662Z" fill="#2CB1BC"/>
<path d="M35.4816 30.4422H35.9136V33.0822H28.6336V32.6662L29.5136 32.5702C29.6843 32.5489 29.7856 32.5062 29.8176 32.4422C29.8496 32.3782 29.8656 32.1595 29.8656 31.7862V23.4982C29.8656 23.1249 29.8496 22.9062 29.8176 22.8422C29.7856 22.7782 29.6843 22.7355 29.5136 22.7142L28.6336 22.6342V22.2022H32.4896V22.6342L31.6096 22.7142C31.4389 22.7355 31.3376 22.7782 31.3056 22.8422C31.2736 22.9062 31.2576 23.1249 31.2576 23.4982V32.5702H34.1536C34.4096 32.5702 34.5909 32.5649 34.6976 32.5542C34.8043 32.5329 34.8736 32.4955 34.9056 32.4422C34.9483 32.3782 34.9856 32.2822 35.0176 32.1542L35.4816 30.4422Z" fill="white"/>
</svg>
